<?xml version="1.0" encoding="UTF-8"?> <!-- Creator: CorelDRAW 2020 (64-Bit) --> <svg xmlns="http://www.w3.org/2000/svg" xmlns:xlink="http://www.w3.org/1999/xlink" xmlns:xodm="http://www.corel.com/coreldraw/odm/2003" xml:space="preserve" width="17.783mm" height="17.7829mm" style="shape-rendering:geometricPrecision; text-rendering:geometricPrecision; image-rendering:optimizeQuality; fill-rule:evenodd; clip-rule:evenodd" viewBox="0 0 145.17 145.17"> <defs> <style type="text/css"> <![CDATA[ .fil0 {fill:#FEFEFE} ]]> </style> </defs> <g id="Слой_x0020_1"> <metadata id="CorelCorpID_0Corel-Layer"></metadata> <path class="fil0" d="M72.58 0c40.09,0 72.58,32.5 72.58,72.58 0,40.09 -32.5,72.58 -72.58,72.58 -40.09,0 -72.58,-32.5 -72.58,-72.58 0,-40.09 32.5,-72.58 72.58,-72.58zm-44.39 100.94l0 -57 33.82 28.5 -33.82 28.5zm1.62 -59.23l85.54 0 -42.77 30.83 -42.78 -30.83zm87.16 2.23l0 57 -33.82 -28.5 33.82 -28.5zm-1.25 59.52l-86.28 0 37.39 -26.95 5.75 4.84 5.74 -4.84 37.39 26.95z"></path> </g> </svg> 