<?xml version="1.0" encoding="UTF-8"?> <!-- Creator: CorelDRAW 2020 (64-Bit) --> <svg xmlns="http://www.w3.org/2000/svg" xmlns:xlink="http://www.w3.org/1999/xlink" xmlns:xodm="http://www.corel.com/coreldraw/odm/2003" xml:space="preserve" width="17.7829mm" height="17.7829mm" style="shape-rendering:geometricPrecision; text-rendering:geometricPrecision; image-rendering:optimizeQuality; fillRule:evenodd; clip-rule:evenodd" viewBox="0 0 116.3 116.3"> <defs> <style type="text/css"> <![CDATA[ .fil0 {fill:#064488} ]]> </style> </defs> <g id="Слой_x0020_1"> <metadata id="CorelCorpID_0Corel-Layer"></metadata> <path class="fil0" d="M58.15 0c32.11,0 58.15,26.03 58.15,58.15 0,32.11 -26.03,58.15 -58.15,58.15 -32.11,0 -58.15,-26.03 -58.15,-58.15 0,-32.12 26.03,-58.15 58.15,-58.15zm28.38 28.58l-68.13 26.28c-1.68,0.65 -1.67,3.03 0.02,3.66l16.6 6.2 6.43 20.67c0.41,1.32 2.03,1.81 3.1,0.93l9.25 -7.54c0.97,-0.79 2.35,-0.83 3.36,-0.09l16.69 12.12c1.15,0.84 2.78,0.21 3.07,-1.18l12.23 -58.81c0.31,-1.52 -1.18,-2.78 -2.62,-2.22zm-12.99 13.75l-26.78 24.89c-0.94,0.88 -1.55,2.05 -1.72,3.32l-0.91 6.76c-0.12,0.9 -1.39,0.99 -1.64,0.12l-3.51 -12.33c-0.4,-1.41 0.18,-2.91 1.43,-3.68l32.45 -19.98c0.58,-0.36 1.18,0.43 0.68,0.89z"></path> </g> </svg> 