<svg xmlns="http://www.w3.org/2000/svg" fill="none" viewBox="0 0 1845 336">
    <path fill="#FEFEFE" d="M163.263 334.5c84.177 0 164.932-32.736 219.766-86.062 23.112-22.476 26.88-30.696 43.399-56.583 26.259-.871 58.469 2.062 83.576-.224 13.358-1.217 16.612-11.335 22.085-20.788 4.644-8.021 12.315-19.224 15.357-28.057-82.454 2.562-186.972.062-273.535.05-19.104-.003-20.349 5.752-27.595 18.188-4.315 7.404-14.979 23.684-16.804 30.745 14.538-.279 106.795-1.84 112.21.999 1.319 1.219 2.834-1.047-4.375 8.588-16.364 21.873-37.022 40.045-60.693 54.069-26.643 15.784-62.469 30.175-101.39 30.175-110.864 0-131.557-114.668-28.777-192.384C222.735 35.563 278.982 51.934 369.995 49c15.778-.508 18.816-8.792 24.887-19.365C399.916 20.87 408.223 8.654 411.324 0L277.93.126C88.774.14-61.089 172.488 24.833 279.116c27.44 34.054 77.621 55.383 138.431 55.383l-.001.001Zm1188.467-41.327c7.98-13.577 15.13-28.114 25.18-38.854 35-37.374 50.08 6.398 75.78-52.389-15.76.008-34.35 2.803-47.91 9.611-3.25 1.63-3.42 2.134-5.9 3.666-5.63 3.485-5.28 1.156-5.56.989l-.27-14.284-21.79.072c-3.46 3.398-73.16 124.303-76.16 132.596l33.59-.256 23.04-41.151Zm-621.903 14.021c-11.82-.116-23.181.913-21.111-12.93.861-5.753 32.121-58.225 36.197-65.232l49.068-86.225c-38.884.266-33.024-.565-55.368 38.522-10.963 19.176-56.674 95.485-61.204 109.511-8.9 27.553 3.978 44.493 37.009 43.743l15.409-27.389Zm474.673.045c-12.44-.332-22.75 1.54-21.14-13.093.55-5.019 8.57-17.193 11.33-22.044 8.09-14.284 16.16-27.744 24.32-42.352 8.29-14.833 16.04-28.288 24.76-43.195 5.54-9.476 21.26-34.235 24.14-43.654-35.79-.001-32.73-1.123-52.78 34.928-7.66 13.764-58.51 99.604-62.6 110.802-9.34 25.589.24 47.552 36.07 45.627 4.31-4.821 13.1-21.317 15.9-27.019Zm440.32-.135c-11.19.129-22.38-.036-33.57.028-35.16.199-17.77-18.716 3.7-56.07 12.93-22.516 13.48-21.006 45.65-20.906 23.6.073 26.7-4.21 38.7-28.207-44.97-.161-83.93-6.726-103.68 24.415-8.52 13.424-34.71 56.247-35.1 70.3-1.28 46.262 44.7 37.216 69.75 37.882 3.66-8.427 12.16-19.344 14.55-27.441v-.001ZM1315.4 201.843c3.15-10.418 12.33-17.661 14.74-28.374-13.96-.041-25.01-1.799-33.96 5.437-6.82 5.509-9.6 15.67-15.19 22.172-6.9 4.661-22.41-7.095-36.57 29.04l15.96.25c3.27.519 1.63.194 3.06.936 1.99 9.788-51.07 63.15-28.55 92.389 7.44 9.667 18.1 10.971 34.18 10.693 3.63-7.128 12.58-20.067 14.61-27.239-33.5.238-19.95-16.098-9.6-34.313 8.2-14.436 16.67-27.967 24.15-42.502 13.66-.781 22.63 1.78 31.81-5.577 4.93-3.954 11.64-16.491 13.94-22.693l-28.58-.219ZM427.149 48.94l160.114.04c17.004-.003 19.733-7.743 26.332-19.266 5.041-8.803 13.378-21.294 16.355-29.6l-156.021.02c-20.623.014-22.024 3.958-29.581 17.612-5.486 9.91-13.389 20.347-17.199 31.194ZM1586.45 201.868c-17.99.199-30.38-1.629-39.06 10.904-17.88 25.796-35.4 74.7-59.89 88.145-8.81 4.84-32.1 12.161-34.66-1.891-2.24-12.282 46.11-80.394 50.92-97.09-34.77-.169-33.97 1.821-47.32 25.211-8.85 15.495-17.35 30.07-26.26 45.758-8.74 15.389-17.59 39.903-1.24 54.087 21.14 18.338 49.86-1.624 53.89-2.033.8 7.339-.12 8.773 3.1 9.51l25.57-.062c9.91-21.187 71.88-122.478 74.95-132.539Zm-747.188 28.281c26.291.019 3.465 30.171-4.892 44.28-4.59 7.749-9.193 17.126-13.941 23.396-6.287 8.3-13.808 9.227-27.857 9.328-32.042.229-12.827-22.597-1.473-42.641 4.253-7.508 9.207-17.18 13.687-23.639 8.297-11.962 18.11-10.735 34.476-10.724Zm41.756 17.182c13.546-53.729-57.45-50.93-81.263-39.469-15.944 7.674-21.975 21.3-30.961 36.978-6.78 11.831-19.485 30.534-23.235 43.494-6.396 22.101 6.07 39.38 21.7 44.346 16.139 5.127 47.534 2.448 60.219-3.786 16.462-8.09 21.017-21.676 30.605-37.4 6.54-10.725 19.456-30.362 22.936-44.163h-.001Zm206.892-15.925c8.6-2.47 28.01-3.485 32.08 3.265 4.48 7.427-2.9 17.403-8.16 26.566-10.24 17.861-17.74 33.014-35.88 41.471-7.46 3.478-24.36 7.88-29.58.154-5.66-8.372 4.54-21.1 7.97-27.088 10.68-18.612 19.1-40.212 33.57-44.368Zm15.65 103.11c4.02-9.594 13.27-23.905 18.82-33.381 7.2-12.286 54.4-93.03 56-99.118-22.35-.501-29.6-1.191-40.79 12.955-8.45-10.55-11.59-13.076-30.29-13.093-48.25-.044-52.34 13.621-75.28 54.183-8.15 14.419-28.74 41.665-16.38 64.224 16.19 29.519 60.52 3.829 60.62 3.821l.24 10.348 27.06.061Zm635.27-93.496c-.88-5.372 48.54-82.771 53.97-98.133-16.14.012-26.86-2.21-36.16 7.123-4.22 4.228-11.63 18.921-15.55 25.783l-60.33 105.008c-5.41 9.508-28.04 46.854-29.83 53.705l32.65-.069 36.93-64.358 13.55.025c4.24 12.131 7.62 57.333 11.87 64.431l29.36.024-11.71-71.229 61.48-46.242c6.83-5.027 14.09-9.066 19.58-15.1-49.63-.767-41.34-1.315-82.04 28.708-6.22 4.589-13.97 13.707-23.77 10.323v.001Zm-792.606-10.758c8.392-.358 31.136-2.139 36.726 1.413 9.917 6.301.289 20.103-3.463 26.505-7.115 12.142-21.487 41.132-31.133 46.258-5.256 2.793-27.886 5.14-33.686.807-9.359-6.992-.162-19.23 3.484-25.689 9.456-16.753 18.933-32.821 28.072-49.294Zm17.794-29.205c.5-7.524 28.144-45.679 31.616-58.22-16.39.263-28.147-2.163-36.739 8.18-5.688 6.847-11.38 18.742-15.934 26.646-9.493 16.48-58.853 99.396-61.681 110.39-6.485 25.216 6.285 46.473 37.983 46.491 59.318.035 55.927-11.46 86.337-63.525 4.62-7.914 9.09-13.965 11.01-23.881 3.71-19.125-4.42-36.482-22.526-42.61-10.101-3.418-22.778-1.077-30.065-3.47l-.001-.001Zm-333.888 62.47c.385 3.568-16.903 29.171-21.697 32.97-9.443 7.483-31.883 10.323-46.685 6.963-18.582-4.217.414-29.267 4.333-35.978 6.995-11.978 13.745-23.617 20.433-35.551 17.44-31.115 25.683-56.607 54.355-58.67 39.609-2.85 67.593 14.32 82.463-30.5-27.463 1.083-56.395-.103-84.076.134-49.911.428-60.969 39.744-85.396 81.675-10.111 17.356-20.224 34.777-30.209 52.445-12.925 22.869-4.777 48.835 16.92 55.691 11.382 3.596 27.118 1.839 40.025 1.843 16.026.005 23.845-.211 36.089-5.79 21.068-9.601 27.339-24.82 39.067-44.893 10.089-17.269 21.384-35.573 30.119-52.545-12.029-.434-48.244-1.516-58.345.271-13.872 2.456-21.874 19.3-26.954 30.436l24.076-.005c2.258.204 1.762.245 3.484.663l1.998.84v.001Z"/>
</svg>
