<?xml version="1.0" encoding="UTF-8"?> <!-- Creator: CorelDRAW 2020 (64-Bit) --> <svg xmlns="http://www.w3.org/2000/svg" xmlns:xlink="http://www.w3.org/1999/xlink" xmlns:xodm="http://www.corel.com/coreldraw/odm/2003" xml:space="preserve" width="70.2404mm" height="30.7785mm" style="shape-rendering:geometricPrecision; text-rendering:geometricPrecision; image-rendering:optimizeQuality; fill-rule:evenodd; clip-rule:evenodd" viewBox="0 0 6232.68 2731.09"> <defs> <style type="text/css"> <![CDATA[ .fil0 {fill:#FEFEFE;fill-rule:nonzero} .fil1 {fill:#16498B;fill-rule:nonzero} ]]> </style> </defs> <g id="Layer_x0020_1"> <metadata id="CorelCorpID_0Corel-Layer"></metadata> <path class="fil0" d="M1565.82 1952.32c-253.57,0.89 -709.5,1.25 -751.93,-1.46 -39.07,-4.65 -98.07,-11.99 -135.06,-43.47 -58.54,-39.22 -104.21,-112.92 -141.59,-230.89 -17.43,-54.66 -42.41,-115.34 -168.35,-533.74l-368.89 242.29c92.33,288.58 133.07,386.31 198.25,571.28 159.36,452.41 571.28,389.92 571.28,389.92l609.97 -0.12 186.31 -393.8z"></path> <path class="fil0" d="M826.14 0l933.75 5.39c-35.4,202.39 -60.07,405.5 -112.37,593.04l-452.46 0.31 0 103.23 418.73 0c-29.52,127.69 -97.08,346.17 -184.39,511.31l-460.38 0 0 3.24 -5.63 0 5.63 100.02 410.61 0c-67.13,146.06 -238.02,416.05 -437.21,553.49 -3.64,0.8 -96.93,8.07 -126.53,-5.08 -96.99,-24.58 -131.81,-101.06 -161.83,-151.99 -14.15,-24.03 -42.25,-105.34 -42.25,-105.34l-156.79 -521.2c277.9,-292.87 367.2,-691.62 371.11,-1086.42z"></path> <g id="_1456420970864"> <g> <g> <polygon class="fil0" points="4800.83,2356.09 5915.88,2356.09 6006.31,2020.86 4884.66,2020.86 "></polygon> </g> </g> </g> <path class="fil1" d="M3588.62 1612.24c0.36,-1.28 0.43,-1.53 0.74,-2.8 0.18,0 0.91,0 1.16,0 -0.61,1.15 -1.29,1.99 -1.9,2.8zm780.01 0l0 0c0.37,-1.28 0.49,-1.53 0.8,-2.8 0.18,0 0.91,0 1.16,0 -0.74,1.15 -1.35,1.99 -1.96,2.8z"></path> <path class="fil0" d="M1970.2 735.2l-671.3 1609.76 860.14 0 166.7 -397.13c0,0 -275.64,0 -387.46,0 93.12,-223.32 505.73,-1212.63 505.73,-1212.63l-473.8 0z"></path> <path class="fil0" d="M2857.14 2343.55l426.68 -0.3c0,0 71.56,-164.28 112.27,-257.67 16.08,87.15 47.51,257.43 47.51,257.43l440.13 0c0,0 -69.08,-331.26 -90.32,-433.14 48.16,-26.53 93.33,-57.01 131.74,-95.59 64.02,-64.38 107.95,-144.23 130.64,-237.31 6.93,-28.39 10.6,-54.51 11.66,-78.38 4.4,-99.17 -36.21,-160.71 -75.6,-196.72 -61.26,-56.25 -149.99,-84.07 -271.01,-84.86l-371.33 -2.51 -492.36 1129.05z"></path> <path class="fil0" d="M3672.39 2343.8l426.55 -0.95c0,0 71.69,-164.56 112.37,-257.95 16.26,87.8 47.98,258.9 47.98,258.9l441.69 -0.98c0,0 -70.29,-331.07 -91.95,-433.11 48.04,-26.54 93.1,-56.98 131.41,-95.44 63.98,-64.31 107.91,-144.14 130.68,-237.22 6.92,-28.43 10.59,-54.47 11.67,-78.38 4.38,-99.04 -36.14,-160.62 -75.45,-196.69 -61.4,-56.37 -150.14,-84.19 -271.21,-84.98l-371.27 -2.51 -492.45 1129.3z"></path> <path class="fil0" d="M5316.89 1277.53c0,0 -77.11,89.82 -138.6,161.47 -16.7,-71.23 -52.41,-223.64 -52.41,-223.64l-433.32 -0.65c0,0 129.94,570.71 142.57,626.16 -21.14,55.09 -338.17,890.22 -338.17,890.22l638.29 -511.27c0,0 110.52,-263.45 123.45,-294.02 24.92,-27.45 973.99,-1002.68 973.99,-1002.68l-915.79 354.42z"></path> <path class="fil0" d="M2665.73 1233.02l-0.1 0.04c-79,34.21 -151.5,83.36 -215.41,146.15 -63,61.31 -118.04,134.48 -163.21,217.04 -44.09,80.52 -78.17,167.31 -101.29,257.98 -36.3,142.51 -28.24,261.15 23.92,352.64 38.33,67.35 120.48,149.95 293.98,160.4 89.93,5.41 175.53,-8.99 254.42,-42.83 75.46,-32.49 147.23,-81.04 213.47,-144.44 62.07,-59.66 117.25,-132.36 164.16,-216.31 46.19,-82.79 81.82,-172.91 105.96,-267.91 35.84,-140.74 27.54,-258.22 -24.65,-349.1 -56.1,-97.21 -155.16,-150.62 -294.58,-158.93 -88.39,-5.35 -174.78,9.9 -256.67,45.27z"></path> <polygon class="fil1" points="2089.99,2238.49 1456.93,2238.49 2039.42,841.67 2285.95,841.67 1782.73,2039.27 2169.8,2039.27 "></polygon> <path class="fil1" d="M3952.28 1556.15c-17.88,73.36 -51.55,134.96 -101.03,184.73 -49.55,49.77 -109.33,87.19 -179.53,112.13l79.97 383.52 -218.51 0 -61.6 -333.75 -109.2 -2.26 -146.55 336.29 -197.85 0.16 399.23 -915.5 298.19 2.01c93.42,0.61 160.94,20.12 202.61,58.39 41.82,38.27 53.26,96.39 34.27,174.28zm-222.3 38.18l0 0c9.02,-36.81 5.39,-62.97 -10.5,-78.38 -16.03,-15.54 -43.2,-23.39 -81.61,-23.7l-97.57 -0.64 -107.23 245.72 97.01 0.67c52.23,0.3 95.79,-12.17 130.82,-37.54 34.99,-25.38 58.04,-60.77 69.07,-106.13z"></path> <path class="fil1" d="M4767.63 1556.15c-17.95,73.36 -51.62,134.96 -101.09,184.73 -49.56,49.77 -109.39,87.19 -179.47,112.13l81.43 383.65 -219.73 0.49 -61.96 -334.37 -110.14 -0.76 -145.75 334.52 -197.57 0.43 399.22 -915.5 298.14 2.01c93.42,0.61 160.99,20.12 202.68,58.39 41.75,38.27 53.25,96.39 34.27,174.28zm-222.3 38.18l0 0c8.95,-36.81 5.38,-62.97 -10.62,-78.38 -15.91,-15.54 -43.07,-23.39 -81.48,-23.7l-97.58 -0.64 -107.22 245.72 96.94 0.67c52.29,0.3 95.91,-12.17 130.94,-37.54 34.87,-25.38 57.98,-60.77 69.02,-106.13z"></path> <polygon class="fil1" points="5792.47,1200.19 5168.23,1870.43 5060.29,2125.59 4727.92,2413.62 4946.25,1844.26 4827.19,1321.4 5040.27,1321.7 5120.88,1665.86 5381.24,1362.52 "></polygon> <path class="fil1" d="M3138.13 1678.12c-21.86,86.12 -53.57,166.14 -94.79,240.03 -41.31,73.88 -88.68,136.58 -142.33,188.15 -56.06,53.62 -115.29,93.91 -177.92,120.87 -62.74,26.9 -130.7,38.22 -203.97,33.81 -104.44,-6.29 -176.28,-43.75 -215.42,-112.52 -39.19,-68.75 -43.97,-160.88 -14.49,-276.47 20.84,-81.75 51.03,-158.78 90.65,-231.14 39.58,-72.33 86.84,-135.3 142.04,-189.04 53.57,-52.65 113.22,-93.15 179.04,-121.64 65.79,-28.4 134.48,-40.44 206.03,-36.13 104.96,6.26 176.9,43.37 216.11,111.3 39.07,67.96 44.1,158.84 15.05,272.78zm-368.87 283.13l0 0c28.83,-36.92 53.97,-77.74 75.23,-122.34 21.38,-44.61 40.29,-99.35 56.87,-164.19 14.22,-56.06 15.81,-99.72 4.81,-131.14 -11.07,-31.33 -36.94,-48.24 -77.78,-50.68 -31.56,-1.9 -61.98,6.48 -91.03,25.22 -29.15,18.74 -57.52,46.01 -85.31,81.96 -25.79,33.28 -50.07,74.95 -72.75,125.03 -22.67,50.04 -40.84,101.77 -54.46,155.14 -15.89,62.64 -16.75,108.1 -2.32,136.31 14.28,28.24 40,43.44 77.03,45.66 27.1,1.59 55.58,-6.48 85.51,-24.33 29.89,-17.79 58.05,-43.38 84.22,-76.64z"></path> </g> </svg> 