<?xml version="1.0" encoding="UTF-8"?> <!-- Creator: CorelDRAW 2020 (64-Bit) --> <svg xmlns="http://www.w3.org/2000/svg" xmlns:xlink="http://www.w3.org/1999/xlink" xmlns:xodm="http://www.corel.com/coreldraw/odm/2003" xml:space="preserve" width="488.06mm" height="88.7363mm" style="shape-rendering:geometricPrecision; text-rendering:geometricPrecision; image-rendering:optimizeQuality; fillRule:evenodd; clip-rule:evenodd" viewBox="0 0 53325.76 9695.38"> <defs> <style type="text/css"> <![CDATA[ .fil0 {fill:#FEFEFE} ]]> </style> </defs> <g id="Слой_x0020_1"> <metadata id="CorelCorpID_0Corel-Layer"></metadata> <path class="fil0" d="M4719.7 9669.91c2433.42,0 4767.94,-946.34 6353.12,-2487.94 668.12,-649.75 777.07,-887.37 1254.61,-1635.71 759.11,-25.2 1690.25,59.6 2416.04,-6.49 386.18,-35.18 480.23,-327.69 638.46,-600.96 134.26,-231.86 356,-555.73 443.93,-811.09 -2383.62,74.09 -5405.07,1.8 -7907.48,1.46 -552.27,-0.08 -588.26,166.27 -797.74,525.78 -124.73,214.05 -433.01,684.67 -485.79,888.79 420.27,-8.06 3087.29,-53.19 3243.84,28.89 38.12,35.25 81.92,-30.28 -126.47,248.27 -473.05,632.32 -1070.26,1157.65 -1754.56,1563.06 -770.19,456.29 -1805.88,872.3 -2931.04,872.3 -3204.91,0 -3803.1,-3314.88 -831.89,-5561.52 2204.21,-1666.69 3830.23,-1193.41 6461.29,-1278.25 456.11,-14.71 543.95,-254.17 719.46,-559.81 145.5,-253.39 385.65,-606.53 475.31,-856.72l-3856.22 3.66c-5468.24,0.43 -9800.56,4982.75 -7316.69,8065.21 793.28,984.46 2243.93,1601.04 4001.84,1601.04zm34357 -1194.7c230.49,-392.51 437.21,-812.75 727.91,-1123.21 1011.61,-1080.45 1447.65,184.96 2190.58,-1514.5 -455.59,0.22 -992.95,81.04 -1385.11,277.84 -93.87,47.11 -98.73,61.69 -170.35,105.98 -162.96,100.76 -152.83,33.43 -161.01,28.6l-7.77 -412.94 -629.73 2.09c-100.14,98.21 -2114.91,3593.4 -2201.66,3833.16l970.81 -7.41 666.33 -1189.61zm-17978.46 405.32c-341.7,-3.34 -670.14,26.38 -610.28,-373.79 24.88,-166.32 928.58,-1683.19 1046.4,-1885.77l1418.49 -2492.63c-1124.09,7.7 -954.69,-16.33 -1600.63,1113.61 -316.92,554.37 -1638.35,2760.33 -1769.31,3165.8 -257.28,796.54 114.99,1286.25 1069.87,1264.55l445.47 -791.77zm13722.16 1.3c-359.66,-9.6 -657.61,44.53 -611.21,-378.5 15.91,-145.08 247.91,-497.02 327.43,-637.25 234.15,-412.94 467.43,-802.04 703.32,-1224.35 239.5,-428.78 463.54,-817.76 715.59,-1248.7 160.22,-273.92 614.74,-989.68 697.81,-1261.96 -1034.5,-0.03 -946,-32.47 -1525.81,1009.7 -221.36,397.89 -1691.23,2879.4 -1809.42,3203.14 -270.05,739.73 6.86,1374.65 1042.48,1319 124.67,-139.37 378.75,-616.23 459.81,-781.08zm12728.89 -3.89c-323.28,3.71 -646.93,-1.05 -970.38,0.79 -1016.36,5.77 -513.69,-541.03 106.85,-1620.89 374.03,-650.91 389.78,-607.25 1319.73,-604.37 682.31,2.11 771.98,-121.69 1118.92,-815.42 -1300.15,-4.64 -2426.39,-194.45 -2997.37,705.79 -246.14,388.08 -1003.5,1626.04 -1014.74,2032.29 -36.95,1337.35 1292.3,1075.86 2016.48,1095.11 105.75,-243.62 351.49,-559.21 420.51,-793.29zm-9523.06 -3042.95c91.01,-301.17 356.47,-510.56 426.07,-820.24 -403.49,-1.19 -722.81,-52.03 -981.67,157.16 -197.07,159.26 -277.41,453.01 -439.05,640.97 -199.34,134.74 -647.99,-205.1 -1057.3,839.5l461.46 7.21c94.44,15.03 47.23,5.62 88.41,27.06 57.48,282.97 -1476.21,1825.6 -825.3,2670.84 215.21,279.47 523.27,317.15 988.13,309.12 105.06,-206.07 363.73,-580.11 422.29,-787.44 -968.33,6.88 -576.69,-465.38 -277.52,-991.94 237.08,-417.31 482.1,-808.48 698.19,-1228.68 394.85,-22.57 654.13,51.48 919.58,-161.22 142.6,-114.29 336.58,-476.73 403.12,-656.02l-826.4 -6.32zm-25677.98 -4420.2l4628.66 1.16c491.57,-0.09 570.48,-223.85 761.23,-556.96 145.74,-254.5 386.75,-615.59 472.81,-855.7l-4510.34 0.57c-596.19,0.42 -636.68,114.42 -855.16,509.15 -158.58,286.51 -387.04,588.19 -497.2,901.77zm33513.59 4420.91c-519.99,5.77 -878.02,-47.08 -1129.16,315.23 -516.9,745.73 -1023.21,2159.48 -1731.16,2548.13 -254.87,139.93 -928.06,351.57 -1002.11,-54.64 -64.73,-355.06 1332.94,-2324.1 1472.23,-2806.74 -1005.36,-4.89 -982.02,52.64 -1368.08,728.81 -255.76,447.95 -501.47,869.28 -759.13,1322.79 -252.77,444.88 -508.47,1153.53 -35.85,1563.57 611.03,530.13 1441.51,-46.94 1557.76,-58.76 23.37,212.17 -3.35,253.62 89.71,274.91l739.28 -1.77c286.31,-612.5 2077.78,-3540.66 2166.51,-3831.53zm-21599.98 817.56c760.03,0.55 100.17,872.21 -141.43,1280.08 -132.69,224.02 -265.75,495.1 -403.02,676.34 -181.73,239.94 -399.17,266.75 -805.29,269.66 -926.31,6.62 -370.83,-653.25 -42.6,-1232.69 122.95,-217.05 266.17,-496.65 395.68,-683.36 239.85,-345.8 523.54,-310.33 996.66,-310.03zm1207.1 496.71c391.59,-1553.23 -1660.8,-1472.29 -2349.2,-1140.98 -460.93,221.83 -635.28,615.76 -895.04,1068.99 -196,342.01 -563.27,882.68 -671.69,1257.33 -184.89,638.91 175.47,1138.41 627.33,1281.97 466.53,148.22 1374.14,70.78 1740.82,-109.42 475.9,-233.87 607.58,-626.63 884.76,-1081.18 189.06,-310.05 562.44,-877.74 663.03,-1276.71zm5980.82 -460.35c248.6,-71.4 809.92,-100.76 927.57,94.38 129.43,214.69 -84.03,503.1 -235.97,767.99 -296.15,516.32 -512.85,954.37 -1037.23,1198.85 -215.68,100.55 -704.08,227.81 -855.04,4.45 -163.57,-242.02 131.1,-609.96 230.44,-783.06 308.73,-538.04 552.07,-1162.49 970.23,-1282.61zm452.56 2980.76c116.07,-277.37 383.69,-691.08 544.15,-965.02 208.03,-355.15 1572.63,-2689.35 1618.85,-2865.35 -646.22,-14.47 -855.91,-34.42 -1179.29,374.51 -244.22,-304.98 -335.04,-377.99 -875.7,-378.48 -1394.62,-1.29 -1513.12,393.75 -2176.19,1566.35 -235.7,416.82 -830.9,1204.45 -473.38,1856.61 467.82,853.35 1749.49,110.69 1752.21,110.47l7.07 299.13 782.28 1.77zm18364.79 -2702.84c-25.58,-155.3 1403.18,-2392.79 1559.99,-2836.89 -466.53,0.34 -776.42,-63.87 -1045.34,205.92 -121.84,122.22 -335.94,546.98 -449.48,745.35l-1743.95 3035.63c-156.36,274.87 -810.71,1354.47 -862.43,1552.53l944.01 -1.98 1067.66 -1860.5 391.57 0.72c122.45,350.67 220.42,1657.42 343.11,1862.61l848.76 0.69 -338.53 -2059.13 1777.42 -1336.8c197.41,-145.31 407.31,-262.07 565.83,-436.51 -1434.7,-22.16 -1195,-38.01 -2371.65,829.91 -179.82,132.65 -403.83,396.24 -686.97,298.43zm-22913.16 -311.01c242.61,-10.33 900.09,-61.83 1061.7,40.85 286.69,182.16 8.34,581.16 -100.12,766.23 -205.69,351.01 -621.16,1189.06 -900.01,1337.25 -151.95,80.74 -806.15,148.58 -973.8,23.33 -270.56,-202.13 -4.69,-555.92 100.71,-742.64 273.36,-484.31 547.33,-948.81 811.52,-1425.02zm514.4 -844.26c14.46,-217.51 813.59,-1320.51 913.98,-1683.07 -473.83,7.62 -813.7,-62.53 -1062.08,236.48 -164.43,197.94 -328.99,541.8 -460.62,770.29 -274.45,476.41 -1701.38,2873.39 -1783.12,3191.23 -187.47,728.96 181.69,1343.46 1098.03,1343.99 1714.79,1.01 1616.76,-331.3 2495.76,-1836.43 133.61,-228.79 262.77,-403.71 318.4,-690.36 107.29,-552.87 -127.63,-1054.64 -651.18,-1231.8 -292.02,-98.8 -658.49,-31.12 -869.16,-100.32zm-9652.21 1805.9c11.12,103.15 -488.66,843.31 -627.25,953.13 -272.98,216.33 -921.68,298.42 -1349.6,201.3 -537.18,-121.92 11.99,-846.09 125.27,-1040.08 202.21,-346.27 397.34,-682.74 590.68,-1027.72 504.17,-899.5 742.46,-1636.43 1571.33,-1696.07 1145.05,-82.39 1954.01,413.97 2383.89,-881.71 -793.91,31.3 -1630.3,-2.99 -2430.51,3.87 -1442.86,12.37 -1762.53,1148.95 -2468.69,2361.11 -292.28,501.72 -584.64,1005.33 -873.3,1516.1 -373.63,661.11 -138.08,1411.76 489.16,1609.94 329.03,103.96 783.93,53.17 1157.05,53.29 463.3,0.15 689.33,-6.11 1043.27,-167.4 609.07,-277.53 790.34,-717.51 1129.37,-1297.78 291.68,-499.21 618.19,-1028.36 870.7,-1519.01 -347.74,-12.52 -1394.65,-43.82 -1686.66,7.86 -401.03,70.98 -632.35,557.92 -779.2,879.85l696.01 -0.14c65.28,5.89 50.93,7.07 100.72,19.16l57.76 24.29z"></path> </g> </svg> 