<?xml version="1.0" encoding="UTF-8"?> <!-- Creator: CorelDRAW 2020 (64-Bit) --> <svg xmlns="http://www.w3.org/2000/svg" xmlns:xlink="http://www.w3.org/1999/xlink" xmlns:xodm="http://www.corel.com/coreldraw/odm/2003" xml:space="preserve" width="70.2404mm" height="30.7786mm" style="shape-rendering:geometricPrecision; text-rendering:geometricPrecision; image-rendering:optimizeQuality; fill-rule:evenodd; clip-rule:evenodd" viewBox="0 0 6684.58 2929.11"> <defs> <style type="text/css"> <![CDATA[ .fil1 {fill:#FEFEFE;fill-rule:nonzero} .fil0 {fill:#16498B;fill-rule:nonzero} ]]> </style> </defs> <g id="Layer_x0020_1"> <metadata id="CorelCorpID_0Corel-Layer"></metadata> <path class="fil0" d="M1679.35 2093.89c-271.96,0.95 -760.94,1.34 -806.45,-1.57 -41.9,-4.99 -105.18,-12.86 -144.85,-46.62 -62.78,-42.05 -111.76,-121.1 -151.86,-247.62 -18.69,-58.62 -45.48,-123.7 -180.55,-572.44l-395.64 259.86c99.02,309.49 142.72,414.31 212.62,612.69 170.91,485.21 612.71,418.19 612.71,418.19l654.2 -0.13 199.82 -422.35z"></path> <path class="fil0" d="M886.04 0l1001.45 5.78c-37.97,217.09 -64.43,434.92 -120.52,636.06l-485.27 0.33 0 110.72 449.09 0c-31.66,136.95 -104.12,371.27 -197.76,548.38l-493.76 0 0 3.47 -6.03 0 6.03 107.27 440.38 0c-71.99,156.65 -255.28,446.22 -468.91,593.62 -3.9,0.86 -103.96,8.66 -135.7,-5.44 -104.03,-26.36 -141.37,-108.39 -173.57,-163.01 -15.18,-25.77 -45.31,-112.98 -45.31,-112.98l-168.16 -559c298.05,-314.09 393.82,-741.75 398.02,-1165.2z"></path> <g id="_1196771868544"> <g> <g> <polygon class="fil0" points="5148.91,2526.93 6344.81,2526.93 6441.8,2167.39 5238.82,2167.39 "></polygon> </g> </g> </g> <path class="fil0" d="M3848.82 1729.15c0.39,-1.37 0.46,-1.64 0.79,-3.01 0.19,0 0.98,0 1.25,0 -0.66,1.24 -1.38,2.13 -2.04,3.01zm836.57 0l0 0c0.4,-1.37 0.52,-1.64 0.86,-3.01 0.19,0 0.98,0 1.25,0 -0.79,1.24 -1.45,2.13 -2.1,3.01z"></path> <path class="fil0" d="M2113.04 788.53l-719.98 1726.47 922.5 0 178.79 -425.92c0,0 -295.63,0 -415.56,0 99.87,-239.5 542.4,-1300.54 542.4,-1300.54l-508.15 0z"></path> <path class="fil0" d="M3064.3 2513.48l457.61 -0.32c0,0 76.75,-176.19 120.41,-276.36 17.24,93.47 50.95,276.1 50.95,276.1l472.04 0c0,0 -74.09,-355.28 -96.87,-464.55 51.66,-28.45 100.1,-61.14 141.29,-102.51 68.66,-69.04 115.78,-154.68 140.11,-254.52 7.43,-30.45 11.37,-58.46 12.5,-84.06 4.72,-106.36 -38.84,-172.36 -81.08,-210.99 -65.7,-60.33 -160.86,-90.16 -290.66,-91.01l-398.26 -2.69 -528.05 1210.91z"></path> <path class="fil0" d="M3938.65 2513.75l457.48 -1.02c0,0 76.89,-176.49 120.52,-276.65 17.44,94.17 51.46,277.67 51.46,277.67l473.71 -1.05c0,0 -75.39,-355.08 -98.62,-464.51 51.52,-28.46 99.85,-61.11 140.93,-102.35 68.62,-68.98 115.73,-154.59 140.15,-254.42 7.42,-30.49 11.36,-58.42 12.51,-84.06 4.7,-106.23 -38.76,-172.26 -80.92,-210.95 -65.86,-60.46 -161.02,-90.29 -290.88,-91.14l-398.19 -2.69 -528.16 1211.17z"></path> <path class="fil0" d="M5702.39 1370.18c0,0 -82.7,96.33 -148.65,173.18 -17.91,-76.39 -56.21,-239.86 -56.21,-239.86l-464.74 -0.69c0,0 139.36,612.09 152.91,671.56 -22.67,59.07 -362.69,954.75 -362.69,954.75l684.57 -548.34c0,0 118.53,-282.55 132.4,-315.34 26.72,-29.44 1044.61,-1075.37 1044.61,-1075.37l-982.19 380.12z"></path> <path class="fil0" d="M2859.01 1322.44l-0.1 0.04c-84.73,36.69 -162.49,89.4 -231.03,156.75 -67.57,65.76 -126.6,144.23 -175.04,232.78 -47.29,86.35 -83.83,179.44 -108.63,276.68 -38.93,152.84 -30.28,280.08 25.66,378.2 41.11,72.23 129.22,160.82 315.3,172.03 96.45,5.81 188.26,-9.64 272.86,-45.94 80.93,-34.85 157.9,-86.92 228.94,-154.91 66.57,-63.99 125.75,-141.96 176.06,-231.99 49.54,-88.78 87.75,-185.43 113.64,-287.33 38.44,-150.94 29.54,-276.95 -26.44,-374.42 -60.16,-104.26 -166.41,-161.54 -315.94,-170.45 -94.8,-5.74 -187.45,10.62 -275.28,48.55z"></path> <polygon class="fil1" points="2241.52,2400.8 1562.57,2400.8 2187.29,902.72 2451.7,902.72 1911.98,2187.13 2327.12,2187.13 "></polygon> <path class="fil1" d="M4238.84 1668.99c-19.18,78.68 -55.29,144.75 -108.36,198.12 -53.14,53.38 -117.26,93.51 -192.55,120.26l85.76 411.32 -234.35 0 -66.07 -357.95 -117.11 -2.43 -157.18 360.67 -212.19 0.17 428.18 -981.87 319.81 2.16c100.19,0.66 172.6,21.57 217.3,62.62 44.85,41.05 57.12,103.38 36.75,186.92zm-238.42 40.95l0 0c9.67,-39.48 5.78,-67.54 -11.26,-84.06 -17.2,-16.66 -46.33,-25.09 -87.53,-25.42l-104.65 -0.69 -115 263.54 104.05 0.72c56.02,0.32 102.73,-13.06 140.3,-40.27 37.52,-27.22 62.25,-65.18 74.08,-113.83z"></path> <path class="fil1" d="M5113.31 1668.99c-19.25,78.68 -55.36,144.75 -108.42,198.12 -53.15,53.38 -117.32,93.51 -192.49,120.26l87.33 411.46 -235.66 0.52 -66.46 -358.61 -118.13 -0.82 -156.32 358.77 -211.9 0.47 428.17 -981.87 319.75 2.16c100.19,0.66 172.66,21.57 217.37,62.62 44.78,41.05 57.11,103.38 36.75,186.92zm-238.42 40.95l0 0c9.6,-39.48 5.77,-67.54 -11.39,-84.06 -17.06,-16.66 -46.19,-25.09 -87.39,-25.42l-104.66 -0.69 -114.99 263.54 103.97 0.72c56.08,0.32 102.87,-13.06 140.44,-40.27 37.4,-27.22 62.18,-65.18 74.02,-113.83z"></path> <polygon class="fil1" points="6212.45,1287.23 5542.95,2006.07 5427.18,2279.72 5070.72,2588.63 5304.87,1978 5177.19,1417.23 5405.71,1417.55 5492.17,1786.66 5771.4,1461.33 "></polygon> <path class="fil1" d="M3365.66 1799.81c-23.45,92.36 -57.45,178.19 -101.67,257.43 -44.31,79.24 -95.11,146.48 -152.65,201.79 -60.13,57.51 -123.65,100.72 -190.82,129.64 -67.29,28.85 -140.17,40.99 -218.76,36.26 -112.01,-6.75 -189.06,-46.92 -231.04,-120.68 -42.04,-73.74 -47.16,-172.55 -15.54,-296.5 22.35,-87.68 54.73,-170.29 97.22,-247.9 42.45,-77.57 93.14,-145.11 152.34,-202.74 57.45,-56.46 121.42,-99.91 192.02,-130.46 70.56,-30.46 144.23,-43.38 220.97,-38.75 112.57,6.72 189.73,46.52 231.78,119.37 41.9,72.89 47.3,170.36 16.14,292.55zm-395.61 303.65l0 0c30.92,-39.6 57.88,-83.38 80.68,-131.2 22.93,-47.84 43.21,-106.56 60.99,-176.1 15.26,-60.13 16.96,-106.95 5.16,-140.65 -11.87,-33.6 -39.62,-51.73 -83.42,-54.36 -33.85,-2.04 -66.47,6.95 -97.63,27.05 -31.26,20.1 -61.69,49.34 -91.49,87.91 -27.66,35.7 -53.7,80.39 -78.03,134.09 -24.32,53.66 -43.81,109.15 -58.41,166.39 -17.04,67.17 -17.97,115.92 -2.49,146.19 15.31,30.29 42.9,46.58 82.61,48.97 29.06,1.7 59.61,-6.95 91.71,-26.09 32.05,-19.08 62.26,-46.53 90.32,-82.2z"></path> </g> </svg> 