<svg width="1845" height="336" viewBox="0 0 1845 336" fill="none" xmlns="http://www.w3.org/2000/svg">
<path fillRule="evenodd" clip-rule="evenodd" d="M163.263 334.5C247.44 334.5 328.195 301.764 383.029 248.438C406.141 225.962 409.909 217.742 426.428 191.855C452.687 190.984 484.897 193.917 510.004 191.631C523.362 190.414 526.616 180.296 532.089 170.843C536.733 162.822 544.404 151.619 547.446 142.786C464.992 145.348 360.474 142.848 273.911 142.836C254.807 142.833 253.562 148.588 246.316 161.024C242.001 168.428 231.337 184.708 229.512 191.769C244.05 191.49 336.307 189.929 341.722 192.768C343.041 193.987 344.556 191.721 337.347 201.356C320.983 223.229 300.325 241.401 276.654 255.425C250.011 271.209 214.185 285.6 175.264 285.6C64.3999 285.6 43.7074 170.932 146.487 93.2164C222.735 35.5626 278.982 51.9342 369.995 48.9994C385.773 48.4906 388.811 40.2072 394.882 29.6345C399.916 20.8693 408.223 8.65356 411.324 -0.000976562L277.93 0.12563C88.774 0.140504 -61.0889 172.488 24.8327 279.116C52.2737 313.17 102.454 334.499 163.264 334.499L163.263 334.5ZM1351.73 293.173C1359.71 279.596 1366.86 265.059 1376.91 254.319C1411.91 216.945 1426.99 260.717 1452.69 201.93C1436.93 201.938 1418.34 204.733 1404.78 211.541C1401.53 213.171 1401.36 213.675 1398.88 215.207C1393.25 218.692 1393.6 216.363 1393.32 216.196L1393.05 201.912L1371.26 201.984C1367.8 205.382 1298.1 326.287 1295.1 334.58L1328.69 334.324L1351.73 293.173ZM729.827 307.194C718.007 307.078 706.646 308.107 708.716 294.264C709.577 288.511 740.837 236.039 744.913 229.032L793.981 142.807C755.097 143.073 760.957 142.242 738.613 181.329C727.65 200.505 681.939 276.814 677.409 290.84C668.509 318.393 681.387 335.333 714.418 334.583L729.827 307.194H729.827ZM1204.5 307.239C1192.06 306.907 1181.75 308.779 1183.36 294.146C1183.91 289.127 1191.93 276.953 1194.69 272.102C1202.78 257.818 1210.85 244.358 1219.01 229.75C1227.3 214.917 1235.05 201.462 1243.77 186.555C1249.31 177.079 1265.03 152.32 1267.91 142.901C1232.12 142.9 1235.18 141.778 1215.13 177.829C1207.47 191.593 1156.62 277.433 1152.53 288.631C1143.19 314.22 1152.77 336.183 1188.6 334.258C1192.91 329.437 1201.7 312.941 1204.5 307.239ZM1644.82 307.104C1633.63 307.233 1622.44 307.068 1611.25 307.132C1576.09 307.331 1593.48 288.416 1614.95 251.062C1627.88 228.546 1628.43 230.056 1660.6 230.156C1684.2 230.229 1687.3 225.946 1699.3 201.949C1654.33 201.788 1615.37 195.223 1595.62 226.364C1587.1 239.788 1560.91 282.611 1560.52 296.664C1559.24 342.926 1605.22 333.88 1630.27 334.546C1633.93 326.119 1642.43 315.202 1644.82 307.105V307.104ZM1315.4 201.843C1318.55 191.425 1327.73 184.182 1330.14 173.469C1316.18 173.428 1305.13 171.67 1296.18 178.906C1289.36 184.415 1286.58 194.576 1280.99 201.078C1274.09 205.739 1258.58 193.983 1244.42 230.118L1260.38 230.368C1263.65 230.887 1262.01 230.562 1263.44 231.304C1265.43 241.092 1212.37 294.454 1234.89 323.693C1242.33 333.36 1252.99 334.664 1269.07 334.386C1272.7 327.258 1281.65 314.319 1283.68 307.147C1250.18 307.385 1263.73 291.049 1274.08 272.834C1282.28 258.398 1290.75 244.867 1298.23 230.332C1311.89 229.551 1320.86 232.112 1330.04 224.755C1334.97 220.801 1341.68 208.264 1343.98 202.062L1315.4 201.843H1315.4ZM427.149 48.9403L587.263 48.9804C604.267 48.9773 606.996 41.237 613.595 29.7141C618.636 20.9105 626.973 8.41972 629.95 0.113868L473.929 0.133586C453.306 0.148114 451.905 4.09159 444.348 17.746C438.862 27.6569 430.959 38.0926 427.149 48.9399V48.9403ZM1586.45 201.868C1568.46 202.067 1556.07 200.239 1547.39 212.772C1529.51 238.568 1511.99 287.472 1487.5 300.917C1478.69 305.757 1455.4 313.078 1452.84 299.026C1450.6 286.744 1498.95 218.632 1503.76 201.936C1468.99 201.767 1469.79 203.757 1456.44 227.147C1447.59 242.642 1439.09 257.217 1430.18 272.905C1421.44 288.294 1412.59 312.808 1428.94 326.992C1450.08 345.33 1478.8 325.368 1482.83 324.959C1483.63 332.298 1482.71 333.732 1485.93 334.469L1511.5 334.407C1521.41 313.22 1583.38 211.929 1586.45 201.868ZM839.262 230.149C865.553 230.168 842.727 260.32 834.37 274.429C829.78 282.178 825.177 291.555 820.429 297.825C814.142 306.125 806.621 307.052 792.572 307.153C760.53 307.382 779.745 284.556 791.099 264.512C795.352 257.004 800.306 247.332 804.786 240.873C813.083 228.911 822.896 230.138 839.262 230.149ZM881.018 247.331C894.564 193.602 823.568 196.401 799.755 207.862C783.811 215.536 777.78 229.162 768.794 244.84C762.014 256.671 749.309 275.374 745.559 288.334C739.163 310.435 751.629 327.714 767.259 332.68C783.398 337.807 814.793 335.128 827.478 328.894C843.94 320.804 848.495 307.218 858.083 291.494C864.623 280.769 877.539 261.132 881.019 247.331H881.018ZM1087.91 231.406C1096.51 228.936 1115.92 227.921 1119.99 234.671C1124.47 242.098 1117.09 252.074 1111.83 261.237C1101.59 279.098 1094.09 294.251 1075.95 302.708C1068.49 306.186 1051.59 310.588 1046.37 302.862C1040.71 294.49 1050.91 281.762 1054.34 275.774C1065.02 257.162 1073.44 235.562 1087.91 231.406ZM1103.56 334.516C1107.58 324.922 1116.83 310.611 1122.38 301.135C1129.58 288.849 1176.78 208.105 1178.38 202.017C1156.03 201.516 1148.78 200.826 1137.59 214.972C1129.14 204.422 1126 201.896 1107.3 201.879C1059.05 201.835 1054.96 215.5 1032.02 256.062C1023.87 270.481 1003.28 297.727 1015.64 320.286C1031.83 349.805 1076.16 324.115 1076.26 324.107L1076.5 334.455L1103.56 334.516V334.516ZM1738.83 241.02C1737.95 235.648 1787.37 158.249 1792.8 142.887C1776.66 142.899 1765.94 140.677 1756.64 150.01C1752.42 154.238 1745.01 168.931 1741.09 175.793L1680.76 280.801C1675.35 290.309 1652.72 327.655 1650.93 334.506L1683.58 334.437L1720.51 270.079L1734.06 270.104C1738.3 282.235 1741.68 327.437 1745.93 334.535L1775.29 334.559L1763.58 263.33L1825.06 217.088C1831.89 212.061 1839.15 208.022 1844.64 201.988C1795.01 201.221 1803.3 200.673 1762.6 230.696C1756.38 235.285 1748.63 244.403 1738.83 241.019V241.02ZM946.224 230.262C954.616 229.904 977.36 228.123 982.95 231.675C992.867 237.976 983.239 251.778 979.487 258.18C972.372 270.322 958 299.312 948.354 304.438C943.098 307.231 920.468 309.578 914.668 305.245C905.309 298.253 914.506 286.015 918.152 279.556C927.608 262.803 937.085 246.735 946.224 230.262ZM964.018 201.057C964.518 193.533 992.162 155.378 995.634 142.837C979.244 143.1 967.487 140.674 958.895 151.017C953.207 157.864 947.515 169.759 942.961 177.663C933.468 194.143 884.108 277.059 881.28 288.053C874.795 313.269 887.565 334.526 919.263 334.544C978.581 334.579 975.19 323.084 1005.6 271.019C1010.22 263.105 1014.69 257.054 1016.61 247.138C1020.32 228.013 1012.19 210.656 994.084 204.528C983.983 201.11 971.306 203.451 964.019 201.058L964.018 201.057ZM630.13 263.527C630.515 267.095 613.227 292.698 608.433 296.497C598.99 303.98 576.55 306.82 561.748 303.46C543.166 299.243 562.162 274.193 566.081 267.482C573.076 255.504 579.826 243.865 586.514 231.931C603.954 200.816 612.197 175.324 640.869 173.261C680.478 170.411 708.462 187.581 723.332 142.761C695.869 143.844 666.937 142.658 639.256 142.895C589.345 143.323 578.287 182.639 553.86 224.57C543.749 241.926 533.636 259.347 523.651 277.015C510.726 299.884 518.874 325.85 540.571 332.706C551.953 336.302 567.689 334.545 580.596 334.549C596.622 334.554 604.441 334.338 616.685 328.759C637.753 319.158 644.024 303.939 655.752 283.866C665.841 266.597 677.136 248.293 685.871 231.321C673.842 230.887 637.627 229.805 627.526 231.592C613.654 234.048 605.652 250.892 600.572 262.028L624.648 262.023C626.906 262.227 626.41 262.268 628.132 262.686L630.13 263.526V263.527Z" fill="#FEFEFE"/>
</svg>
