<?xml version="1.0" encoding="UTF-8"?> <!-- Creator: CorelDRAW 2020 (64-Bit) --> <svg xmlns="http://www.w3.org/2000/svg" xmlns:xlink="http://www.w3.org/1999/xlink" xmlns:xodm="http://www.corel.com/coreldraw/odm/2003" xml:space="preserve" width="17.783mm" height="17.783mm" style="shape-rendering:geometricPrecision; text-rendering:geometricPrecision; image-rendering:optimizeQuality; fillRule:evenodd; clip-rule:evenodd" viewBox="0 0 215.87 215.87"> <defs> <style type="text/css"> <![CDATA[ .fil0 {fill:#FEFEFE} ]]> </style> </defs> <g id="Слой_x0020_1"> <metadata id="CorelCorpID_0Corel-Layer"></metadata> <path class="fil0" d="M107.93 0c59.61,0 107.93,48.32 107.93,107.93 0,59.61 -48.32,107.93 -107.93,107.93 -59.61,0 -107.93,-48.32 -107.93,-107.93 0,-59.61 48.32,-107.93 107.93,-107.93zm59.97 147.24c-3.41,12.12 -16.15,20.92 -30.3,20.92 -1.38,0 -2.78,-0.09 -4.13,-0.25 -17.19,-2.47 -37.32,-14.27 -53.87,-31.6 -17.43,-16.64 -29.22,-36.76 -31.56,-53.82 -2.36,-17.26 5.36,-30.13 20.66,-34.43 0.79,-0.22 1.62,-0.33 2.47,-0.33 8.96,0 19.63,12.66 23.34,21.74 2.42,5.91 2.23,10.47 -0.53,13.17 -6.92,6.79 -9.51,10.92 -9.21,14.72 0.33,4.24 4.28,9.14 10.99,16.17 0.85,0.9 2,2.1 3.29,3.39 1.2,1.2 2.35,2.3 3.37,3.27 7.49,7.14 12.37,11.01 16.77,11.01 3.65,0 7.61,-2.59 14.12,-9.23 0.99,-1 2.8,-2.2 5.87,-2.2 8.08,0 19.48,7.88 25.06,15.25 3.38,4.46 4.64,8.69 3.65,12.23z"></path> </g> </svg> 